Coordinates
version=1
nRows=29
nColumns=22
inDegrees=yes

Units are S.I. units (second, meters, Newtons, ...)
If the header above contains a line with 'inDegrees', this indicates whether rotational values are in degrees (yes) or radians (no).

endheader
time	pelvis_tilt	pelvis_list	pelvis_rotation	pelvis_tx	pelvis_ty	pelvis_tz	hip_flexion_r	hip_adduction_r	hip_rotation_r	knee_angle_r	ankle_angle_r	subtalar_angle_r	hip_flexion_l	hip_adduction_l	hip_rotation_l	knee_angle_l	ankle_angle_l	subtalar_angle_l	lumbar_extension	lumbar_bending	lumbar_rotation
      2.29000000	      1.55131656	      3.78519246	     98.01865377	      0.50234711	      0.93099354	     -0.60514099	      3.91923932	      4.08974229	     -1.79542203	    -15.94127170	      3.24448858	      2.67799738	      9.68533402	    -11.22535284	     -8.01639587	    -25.69277450	     15.13093349	     -0.25510478	     -6.08651387	     -1.92327627	      3.13226854
      2.30000000	      1.69686591	      3.62015239	     97.56684208	      0.50242352	      0.93081506	     -0.60741365	      3.81350493	      4.20894895	     -1.56282882	    -15.63220661	      3.26926487	      2.76528395	      9.34710119	    -11.24365174	     -7.76016141	    -24.48368423	     13.63014165	     -0.00908226	     -5.89006257	     -1.71778998	      3.18139799
      2.31000000	      1.84329376	      3.46332880	     97.12176901	      0.50236357	      0.93066535	     -0.60965007	      3.67070664	      4.32057070	     -1.32289772	    -15.27282812	      3.28296178	      2.86499006	      8.97198102	    -11.24619400	     -7.49726243	    -23.32163204	     11.91820972	      0.25197375	     -5.69543505	     -1.49785104	      3.22837671
      2.32000000	      1.99409442	      3.29752355	     96.68852067	      0.50218393	      0.93051059	     -0.61185256	      3.51419111	      4.42799498	     -1.07664863	    -14.87085770	      3.26963736	      2.96356344	      8.58320357	    -11.24292531	     -7.25829530	    -22.20713335	     10.11378013	      0.48132025	     -5.48110959	     -1.27007922	      3.26073684
      2.33000000	      2.14811174	      3.13338036	     96.26942501	      0.50187298	      0.93036601	     -0.61404069	      3.32503170	      4.53137424	     -0.81728585	    -14.41529282	      3.24000712	      3.07180126	      8.16687587	    -11.24157290	     -7.09015555	    -21.13436466	      8.37845353	      0.71050645	     -5.25850698	     -1.03136286	      3.28635329
      2.34000000	      2.31119813	      2.97632919	     95.87082953	      0.50144045	      0.93022887	     -0.61622149	      3.09571340	      4.63901735	     -0.54343265	    -13.90247023	      3.19384550	      3.19276475	      7.72483487	    -11.25798941	     -7.03465453	    -20.11376767	      6.88023786	      0.94919340	     -5.03205543	     -0.77629114	      3.30070731
      2.35000000	      2.48688424	      2.82476626	     95.50144611	      0.50088339	      0.93009211	     -0.61839950	      2.83060031	      4.75410221	     -0.25967206	    -13.33587163	      3.12569181	      3.32179813	      7.26632528	    -11.30128019	     -7.12067041	    -19.15425741	      5.73471413	      1.19022085	     -4.80032362	     -0.50156635	      3.29881168
      2.36000000	      2.67043433	      2.69053805	     95.16815057	      0.50020748	      0.92997434	     -0.62057421	      2.51588912	      4.87320835	      0.02251990	    -12.71495057	      3.04487269	      3.46430143	      6.78373388	    -11.36927770	     -7.35804237	    -18.25599985	      4.98476830	      1.44420175	     -4.57867901	     -0.21328366	      3.26676419
      2.37000000	      2.84324982	      2.55521932	     94.88124442	      0.49938271	      0.92986593	     -0.62274890	      2.17061530	      4.97128320	      0.28526023	    -12.03975582	      2.92548184	      3.60361095	      6.30081071	    -11.43589921	     -7.73696084	    -17.41314004	      4.57237766	      1.68409370	     -4.34550047	      0.06760766	      3.21029403
      2.38000000	      3.00195226	      2.48400377	     94.63760525	      0.49843598	      0.92986166	     -0.62491894	      1.73058508	      5.05312514	      0.52773337	    -11.32600866	      2.84595463	      3.78972694	      5.72505132	    -11.49501895	     -8.18380191	    -16.56577170	      4.41647012	      1.97657102	     -4.18517708	      0.33892134	      3.11912337
      2.39000000	      3.11747933	      2.43718206	     94.45630977	      0.49732013	      0.92992602	     -0.62705919	      1.24728509	      5.07989295	      0.72367566	    -10.58814645	      2.77681611	      3.99684448	      5.10871832	    -11.50276237	     -8.64452286	    -15.70206647	      4.39904726	      2.27396562	     -4.05347848	      0.56747267	      2.97670204
      2.40000000	      3.17601760	      2.42099237	     94.33792017	      0.49604222	      0.93007738	     -0.62917071	      0.71713264	      5.03903419	      0.86594646	     -9.83434697	      2.72350090	      4.22972387	      4.44114854	    -11.43973160	     -9.07099942	    -14.79535097	      4.42872702	      2.58366209	     -3.95943087	      0.73713562	      2.79190719
      2.41000000	      3.17554879	      2.42950042	     94.27722283	      0.49462670	      0.93030442	     -0.63124033	      0.15692977	      4.92994553	      0.94697149	     -9.08113785	      2.68650095	      4.48604693	      3.73439525	    -11.30323467	     -9.42907611	    -13.84201636	      4.43906699	      2.90328529	     -3.89807688	      0.84382819	      2.57249433
      2.42000000	      3.12684757	      2.45633768	     94.26942847	      0.49310968	      0.93057902	     -0.63324399	     -0.41364767	      4.76752776	      0.98203871	     -8.34904820	      2.66715231	      4.76731396	      3.00866440	    -11.10830520	     -9.70768550	    -12.85485774	      4.41905531	      3.23176508	     -3.86640964	      0.89710872	      2.32545614
      2.43000000	      3.03977798	      2.48477723	     94.29643290	      0.49153531	      0.93086671	     -0.63519252	     -0.97071568	      4.56316075	      0.96971137	     -7.64688461	      2.65317036	      5.06056639	      2.29086136	    -10.86800797	     -9.90106046	    -11.85774959	      4.32539711	      3.55632137	     -3.84095017	      0.90585173	      2.07896737
      2.44000000	      2.92492294	      2.49574912	     94.36176078	      0.48992382	      0.93112372	     -0.63706077	     -1.48096582	      4.32905332	      0.89567908	     -6.99363635	      2.65482705	      5.35508066	      1.62359395	    -10.59825823	    -10.00949518	    -10.88281862	      4.15105578	      3.86585911	     -3.80221448	      0.87756298	      1.84298177
      2.45000000	      2.80272689	      2.49047318	     94.45076377	      0.48830901	      0.93132937	     -0.63883672	     -1.93348183	      4.08890059	      0.79738750	     -6.40907722	      2.66807835	      5.65396903	      1.01856918	    -10.32608099	    -10.05304537	     -9.96256076	      3.95810497	      4.16146473	     -3.75320268	      0.83701698	      1.60235414
      2.46000000	      2.68486188	      2.47276111	     94.55619375	      0.48669570	      0.93147648	     -0.64051645	     -2.32665504	      3.85505248	      0.67775383	     -5.90089712	      2.69679972	      5.95311018	      0.48134033	    -10.06586832	    -10.05156644	     -9.11989358	      3.77575654	      4.44027737	     -3.69849236	      0.79857665	      1.37332580
      2.47000000	      2.58057445	      2.46322189	     94.66264159	      0.48509510	      0.93158211	     -0.64208462	     -2.67615241	      3.63800587	      0.56594521	     -5.47585889	      2.73194966	      6.26767487	     -0.01129657	     -9.82863129	    -10.02837453	     -8.36066878	      3.64900636	      4.71280981	     -3.66674070	      0.77669204	      1.16023115
      2.48000000	      2.48565157	      2.41221502	     94.78356929	      0.48348245	      0.93159276	     -0.64351055	     -2.91936572	      3.42923386	      0.40138521	     -5.14706444	      2.80103211	      6.52275826	     -0.38798755	     -9.60435349	     -9.97751856	     -7.70643572	      3.49324117	      4.92754260	     -3.60176473	      0.75875968	      0.98289078
      2.49000000	      2.40307415	      2.35061891	     94.89824603	      0.48187490	      0.93154700	     -0.64477355	     -3.07489538	      3.23274015	      0.27847559	     -4.94297287	      2.88421598	      6.73580296	     -0.69656946	     -9.39616280	     -9.91399032	     -7.14118031	      3.38301726	      5.10336401	     -3.54337510	      0.75863719	      0.79695566
      2.50000000	      2.33842311	      2.32438920	     95.00169841	      0.48027443	      0.93150636	     -0.64593002	     -3.21630812	      3.05949006	      0.13413163	     -4.81683711	      2.99290417	      6.96837394	     -0.99184436	     -9.21435333	     -9.86727369	     -6.66542363	      3.33608435	      5.28598193	     -3.53842206	      0.78122984	      0.68273441
      2.51000000	      2.29224731	      2.29552540	     95.08517708	      0.47871407	      0.93143432	     -0.64691006	     -3.27648760	      2.90701260	      0.01436144	     -4.81144568	      3.11162008	      7.14847123	     -1.22445608	     -9.05755413	     -9.82926524	     -6.28838336	      3.33649953	      5.43059560	     -3.55221333	      0.82355914	      0.60608133
      2.52000000	      2.25871150	      2.28718018	     95.15436019	      0.47719331	      0.93137334	     -0.64776763	     -3.29708277	      2.77352948	     -0.10345473	     -4.90201823	      3.24375018	      7.30341451	     -1.42851522	     -8.92133342	     -9.81211735	     -5.99673033	      3.35565052	      5.56312634	     -3.60353145	      0.87821531	      0.57086946
      2.53000000	      2.23705075	      2.29522987	     95.20028986	      0.47573199	      0.93132839	     -0.64852294	     -3.28013825	      2.65813062	     -0.20711208	     -5.07772341	      3.37810009	      7.42006554	     -1.60798792	     -8.80493088	     -9.81489113	     -5.78068575	      3.39733829	      5.67601021	     -3.68469862	      0.94346001	      0.58158315
      2.54000000	      2.23607953	      2.30647445	     95.21720422	      0.47434426	      0.93129129	     -0.64919847	     -3.21701279	      2.57004838	     -0.30551345	     -5.32381674	      3.46334988	      7.47229884	     -1.75562120	     -8.71592272	     -9.82599234	     -5.63131459	      3.48117587	      5.73962100	     -3.77401374	      1.02554106	      0.66085819
      2.55000000	      2.20619660	      2.36591183	     95.21148691	      0.47300007	      0.93132881	     -0.64981348	     -3.16869328	      2.45717321	     -0.38502365	     -5.63877869	      3.63822955	      7.54312925	     -1.93052088	     -8.60262891	     -9.86805072	     -5.53429158	      3.51921826	      5.84118977	     -3.92885825	      1.07683794	      0.73493155
      2.56000000	      2.20606719	      2.41683053	     95.19001313	      0.47172886	      0.93137018	     -0.65038458	     -3.08453697	      2.38212136	     -0.47533758	     -5.98201538	      3.70161234	      7.55650659	     -2.06642271	     -8.52698881	     -9.88874895	     -5.48898120	      3.60175113	      5.87951729	     -4.06848258	      1.15076582	      0.88051230
      2.57000000	      2.18531023	      2.49283290	     95.15855432	      0.47049900	      0.93145350	     -0.65092587	     -3.00869975	      2.29078302	     -0.55325413	     -6.36161108	      3.81659786	      7.55460561	     -2.20557116	     -8.43481797	     -9.92696404	     -5.49147980	      3.67667131	      5.91198942	     -4.23689110	      1.19606930	      1.03700205
